<?xml version="1.0" standalone="no"?>
<!DOCTYPE svg PUBLIC "-//W3C//DTD SVG 20010904//EN"
 "http://www.w3.org/TR/2001/REC-SVG-20010904/DTD/svg10.dtd">
<svg version="1.0" xmlns="http://www.w3.org/2000/svg"
 width="1024.000000pt" height="1024.000000pt" viewBox="0 0 1024.000000 1024.000000"
 preserveAspectRatio="xMidYMid meet">

<g transform="translate(0.000000,1024.000000) scale(0.100000,-0.100000)"
fill="#000000" stroke="none">
<path d="M5045 7481 c-117 -31 -225 -122 -281 -236 -26 -53 -29 -70 -29 -155
0 -88 3 -100 34 -164 66 -137 180 -216 320 -224 186 -11 263 35 386 230 38 60
40 67 39 143 0 106 -24 182 -77 247 -49 59 -133 121 -196 143 -54 18 -156 27
-196 16z m190 -186 c137 -79 165 -224 68 -352 -55 -71 -181 -104 -266 -68 -45
19 -104 69 -123 106 -73 142 -6 289 156 340 39 12 121 -1 165 -26z"/>
<path d="M5071 7186 c-54 -30 -68 -114 -26 -160 65 -70 164 -48 181 41 17 91
-76 163 -155 119z"/>
<path d="M5826 7059 c-114 -31 -129 -194 -24 -260 48 -29 94 -20 140 30 47 50
57 98 32 152 -28 64 -86 94 -148 78z"/>
<path d="M4310 7038 c-70 -49 -87 -132 -40 -199 25 -33 90 -68 129 -69 66 0
140 96 127 166 -5 21 -23 52 -50 79 -38 40 -47 45 -88 45 -30 0 -56 -7 -78
-22z"/>
<path d="M6276 6929 c-37 -43 -35 -97 3 -138 39 -42 73 -41 117 3 39 39 44 77
17 116 -42 61 -96 68 -137 19z"/>
<path d="M3826 6925 c-32 -34 -39 -69 -22 -103 20 -38 47 -61 82 -68 26 -5 35
0 62 30 49 56 42 120 -18 151 -43 22 -78 19 -104 -10z"/>
<path d="M8068 6561 l-26 -21 -2936 0 c-2632 0 -2939 2 -2960 15 -32 21 -71
10 -100 -29 -35 -46 -39 -71 -20 -111 31 -66 95 -95 134 -60 15 14 274 16
2321 17 1267 0 2585 4 2929 7 l625 6 31 -22 c44 -33 70 -29 115 16 29 29 39
47 39 71 0 84 -96 154 -152 111z"/>
<path d="M3176 6261 c-16 -11 -33 -27 -38 -35 -10 -17 6 -56 22 -56 6 0 10 -4
10 -10 0 -5 -16 -10 -35 -10 -79 0 -177 -73 -215 -162 -19 -45 -22 -70 -23
-209 -2 -152 -3 -158 -26 -183 -32 -33 -32 -78 -1 -111 23 -25 24 -32 25 -183
0 -156 0 -157 33 -226 59 -125 157 -188 294 -189 56 0 79 5 132 32 35 17 71
42 80 56 9 14 23 25 30 25 8 0 30 40 52 98 36 90 39 106 42 220 4 112 6 124
26 140 23 18 46 53 46 71 0 5 -18 31 -40 56 -34 40 -40 52 -35 78 11 60 -12
282 -33 323 -46 89 -151 174 -216 174 -18 0 -18 1 3 24 14 14 21 33 19 47 -6
47 -99 65 -152 30z m104 -294 c54 -27 66 -63 73 -217 5 -138 5 -143 -19 -178
-26 -38 -25 -58 6 -102 16 -22 17 -41 11 -167 -8 -157 -14 -172 -80 -200 -63
-27 -143 10 -161 75 -5 20 -10 90 -10 156 0 117 0 119 30 153 17 18 30 39 30
45 0 7 -15 28 -34 48 l-33 35 6 153 6 154 33 29 c36 32 96 39 142 16z"/>
<path d="M2316 6234 c-3 -9 -6 -26 -6 -39 0 -18 -8 -25 -43 -33 -92 -24 -180
-106 -220 -205 -17 -43 -21 -76 -23 -199 -2 -143 -3 -148 -28 -178 -33 -39
-33 -60 0 -99 24 -29 25 -35 27 -178 2 -137 4 -152 28 -204 38 -80 91 -134
168 -172 60 -29 75 -32 156 -32 83 0 95 2 153 34 48 26 74 49 111 100 72 100
72 100 70 227 l-1 114 33 23 c64 43 74 96 29 145 -20 21 -28 22 -190 22 l-168
0 -26 -31 c-14 -17 -26 -42 -26 -56 0 -36 29 -93 49 -94 9 0 34 -1 56 -2 l40
-2 -1 -96 c0 -105 -11 -133 -60 -166 -36 -23 -108 -21 -141 3 -60 45 -68 65
-74 207 l-6 132 28 27 c36 35 36 49 -1 91 l-30 35 0 132 c0 100 4 140 16 165
39 83 160 105 238 44 21 -16 26 -29 26 -64 0 -35 6 -52 31 -80 26 -30 37 -35
73 -35 33 0 48 6 68 28 44 46 46 59 39 203 -7 149 -14 169 -62 169 -28 0 -37
-6 -63 -44 -13 -19 -15 -19 -62 11 -27 18 -61 35 -76 38 -20 5 -28 13 -28 29
0 32 -19 46 -61 46 -24 0 -39 -5 -43 -16z"/>
<path d="M7336 6186 c-46 -82 -47 -127 -6 -176 17 -19 30 -39 30 -45 0 -6 -18
-29 -41 -50 -57 -56 -64 -71 -44 -101 31 -48 104 -18 150 62 15 27 36 58 46
69 32 36 51 94 44 136 -7 38 -66 147 -88 161 -33 21 -55 8 -91 -56z"/>
<path d="M6024 6199 c-18 -20 -26 -20 -276 -18 -275 3 -280 2 -299 -49 -12
-31 11 -83 49 -110 l29 -21 5 -187 c5 -185 4 -187 -19 -210 -30 -31 -30 -74 2
-112 25 -30 25 -32 25 -216 l0 -186 -40 -25 c-46 -29 -57 -59 -40 -110 11 -34
60 -72 79 -61 5 3 114 6 243 6 165 1 242 -2 261 -11 20 -9 33 -9 51 -1 44 20
53 48 60 190 l7 132 -27 25 c-19 17 -38 25 -64 25 -48 0 -70 -24 -70 -77 0
-24 -7 -50 -17 -62 -17 -20 -26 -22 -132 -19 l-115 3 3 165 c1 91 6 168 10
173 4 4 30 10 58 14 l51 6 22 -44 c13 -24 28 -47 34 -51 23 -16 67 -8 91 17
24 23 25 29 25 160 l0 137 -30 29 c-23 24 -37 30 -62 27 -30 -3 -34 -8 -47
-50 -16 -53 -31 -60 -106 -52 l-50 6 3 157 c1 86 5 162 7 169 3 8 34 12 109
12 97 0 106 -2 120 -22 9 -12 16 -35 16 -51 0 -69 97 -104 139 -51 19 24 21
40 21 143 0 64 -5 133 -10 153 -18 64 -79 88 -116 47z"/>
<path d="M4815 6189 c-16 -5 -74 -8 -128 -7 -93 3 -100 2 -118 -21 -10 -13
-19 -38 -19 -57 0 -27 8 -39 40 -65 l40 -32 0 -197 0 -197 -30 -38 c-16 -21
-30 -43 -30 -51 0 -7 14 -25 30 -41 l30 -28 0 -188 0 -188 -35 -20 c-65 -39
-72 -81 -21 -136 l34 -37 69 17 c53 14 75 16 96 8 50 -19 93 -14 116 14 45 58
34 118 -29 150 l-30 16 0 108 c0 106 1 109 31 147 17 22 37 51 45 67 8 15 18
27 22 27 5 0 20 -33 34 -72 14 -40 48 -123 76 -184 l49 -110 -23 -28 c-31 -36
-30 -77 2 -115 l26 -31 117 0 c115 0 118 1 143 28 37 38 43 73 23 116 -14 30
-24 37 -57 42 -23 4 -42 13 -45 23 -58 168 -180 464 -203 493 -17 20 -30 39
-30 42 0 13 85 143 106 163 13 12 24 29 24 38 0 46 94 165 130 165 22 0 70 55
70 80 0 28 -19 74 -36 87 -11 8 -54 10 -147 6 -114 -5 -135 -8 -154 -26 -30
-27 -29 -68 2 -105 14 -17 25 -33 25 -36 0 -3 -37 -65 -82 -138 -44 -73 -94
-157 -110 -185 -16 -29 -33 -55 -37 -58 -5 -2 -7 77 -5 176 l3 181 40 44 c50
53 55 100 16 139 -26 27 -27 27 -70 14z"/>
<path d="M7095 6189 c-22 -4 -72 -8 -111 -8 -56 -1 -77 -5 -98 -22 -26 -21
-34 -53 -16 -64 18 -11 11 -52 -39 -217 -27 -90 -59 -198 -71 -240 -13 -43
-26 -78 -29 -78 -4 0 -15 33 -25 73 -10 39 -43 144 -73 232 l-53 160 19 35
c17 31 18 39 6 67 -23 55 -45 62 -193 59 -129 -2 -134 -3 -153 -26 -35 -47
-24 -99 28 -131 l34 -21 -3 -212 c-3 -201 -4 -213 -25 -240 -24 -30 -23 -66 3
-96 9 -11 15 -68 20 -192 l7 -176 -38 -19 c-61 -29 -72 -97 -22 -147 21 -21
31 -22 152 -21 l130 1 22 33 c33 49 30 81 -12 121 l-35 34 1 250 c0 143 4 242
9 231 15 -38 88 -270 95 -305 16 -75 35 -109 71 -120 72 -24 95 9 195 290 l48
135 -2 -243 c-2 -226 -3 -244 -21 -254 -60 -34 -74 -95 -32 -144 23 -27 25
-28 155 -29 l132 -2 24 29 c16 19 25 42 25 63 0 33 -10 44 -79 92 -10 7 0 362
11 406 9 37 9 53 0 67 -8 14 -12 83 -12 227 l0 207 35 32 c49 44 53 113 9 152
-27 24 -29 24 -89 11z"/>
<path d="M3703 6158 c-15 -16 -23 -37 -23 -61 0 -30 7 -41 40 -68 l40 -32 0
-198 c0 -122 -4 -200 -10 -204 -6 -3 -17 -20 -26 -36 -14 -28 -14 -33 10 -76
25 -44 26 -51 26 -223 l0 -178 -35 -12 c-62 -21 -75 -87 -27 -141 23 -26 35
-32 63 -29 46 4 145 4 193 0 51 -4 86 32 86 90 0 33 -6 43 -39 69 l-39 31 -1
154 c0 151 0 154 22 160 48 13 75 6 95 -21 32 -46 62 -149 78 -267 17 -121 27
-147 73 -190 24 -23 42 -30 86 -34 67 -5 105 9 146 56 27 30 30 41 26 75 -7
53 -28 72 -79 72 -39 0 -43 3 -54 35 -7 19 -19 79 -27 133 -9 59 -25 118 -40
149 l-25 51 30 38 c17 22 41 45 53 53 33 21 85 163 85 230 0 171 -76 298 -218
364 -55 26 -63 27 -272 30 l-215 4 -22 -24z m402 -188 c25 -6 52 -22 73 -44
31 -34 32 -39 32 -121 0 -156 -34 -195 -170 -195 l-70 0 0 179 c0 134 3 181
13 184 20 9 79 7 122 -3z"/>
<path d="M7813 6166 c-58 -19 -104 -49 -151 -100 -52 -56 -67 -87 -82 -164
-37 -186 54 -336 265 -436 145 -69 148 -71 168 -107 23 -43 19 -155 -7 -194
-44 -67 -136 -84 -212 -40 -52 30 -60 52 -38 98 22 46 12 82 -29 107 -51 31
-100 26 -145 -14 l-38 -35 2 -161 c1 -138 4 -164 19 -180 23 -25 61 -25 101
-1 l31 19 63 -31 c108 -53 212 -45 317 25 46 31 140 166 154 222 6 26 10 84 7
130 -4 69 -10 96 -37 150 -39 81 -81 116 -185 157 -156 62 -213 113 -235 209
-17 77 31 147 108 157 78 11 134 -31 124 -94 -5 -28 -1 -39 22 -63 58 -61 122
-61 165 0 17 24 20 45 20 155 0 165 -14 195 -91 195 -22 0 -32 -7 -41 -25 -12
-27 -23 -31 -33 -15 -4 6 -24 19 -45 30 -46 23 -132 26 -197 6z"/>
<path d="M3809 4647 c-113 -58 -141 -141 -73 -216 34 -39 66 -54 172 -81 36
-9 43 -15 40 -33 -5 -34 -65 -35 -132 -1 l-53 27 -30 -23 c-17 -12 -35 -33
-41 -45 -9 -20 -7 -28 16 -50 36 -36 86 -60 154 -74 101 -21 172 13 214 103
29 62 30 101 4 143 -23 39 -57 57 -135 73 -71 14 -95 26 -95 44 0 34 79 35
135 2 22 -14 46 -22 52 -18 11 8 53 86 53 100 0 17 -145 82 -182 82 -21 0 -62
-14 -99 -33z"/>
<path d="M4275 4645 c-29 -28 -32 -61 -9 -93 13 -19 24 -22 80 -22 l64 0 0
-166 c0 -93 4 -174 10 -184 28 -52 99 -45 119 12 6 17 11 101 11 186 l0 155
54 -7 c59 -7 79 4 97 51 13 35 12 41 -17 68 -26 25 -30 25 -206 25 -177 0
-179 0 -203 -25z"/>
<path d="M4985 4651 c-141 -64 -204 -215 -140 -340 48 -96 152 -161 258 -161
66 0 112 28 165 100 60 82 75 123 70 191 -12 162 -205 278 -353 210z m183
-157 c34 -29 42 -42 42 -69 0 -56 -73 -125 -133 -125 -37 0 -105 54 -115 92
-12 46 -6 62 39 103 55 50 109 49 167 -1z"/>
<path d="M5530 4655 c-11 -13 -13 -59 -11 -237 1 -121 5 -227 8 -235 8 -21 57
-43 82 -36 29 7 51 52 51 103 0 37 2 40 29 40 33 0 52 -15 105 -83 49 -61 69
-72 107 -56 61 25 63 64 7 125 l-41 45 24 27 c33 36 59 95 59 133 0 60 -49
128 -120 165 -52 27 -279 34 -300 9z m252 -152 c22 -20 23 -59 2 -67 -9 -3
-42 -6 -75 -6 l-59 0 0 51 0 52 57 -7 c31 -4 65 -14 75 -23z"/>
<path d="M6155 4646 c-14 -21 -16 -56 -13 -235 4 -271 -9 -254 190 -256 173
-2 180 -1 201 35 22 36 21 62 -1 90 -18 22 -25 23 -136 21 l-117 -2 3 28 3 28
83 0 c93 1 105 8 95 60 -10 50 -19 55 -104 55 l-79 0 0 32 0 31 123 -7 124 -6
11 25 c19 41 14 64 -17 96 l-29 29 -161 0 c-159 0 -161 0 -176 -24z"/>
<path d="M8077 4629 c-23 -17 -59 -19 -632 -24 -585 -5 -610 -6 -641 -25 -38
-24 -64 -61 -64 -91 0 -11 15 -36 34 -55 43 -43 90 -46 129 -10 l26 24 550 8
550 7 36 -27 c41 -32 79 -29 114 8 46 49 44 121 -6 168 -38 35 -68 40 -96 17z"/>
<path d="M2052 4586 c-43 -49 -43 -93 -1 -135 35 -36 80 -41 119 -14 23 17 66
18 590 15 l564 -2 26 -25 c37 -36 81 -33 114 6 30 35 34 83 10 117 -34 49 -38
49 -544 52 -666 4 -770 6 -811 14 -32 7 -38 5 -67 -28z"/>
<path d="M7745 4391 c-40 -17 -58 -48 -52 -91 8 -63 30 -90 75 -90 48 0 77 21
92 66 16 48 6 81 -33 104 -34 21 -51 23 -82 11z"/>
<path d="M2396 4369 c-38 -30 -37 -90 3 -130 56 -56 134 -25 147 58 5 36 3 45
-19 67 -33 33 -92 35 -131 5z"/>
<path d="M7245 4365 c-57 -56 -12 -165 68 -165 24 0 46 9 66 26 26 21 31 33
31 69 0 36 -5 48 -31 69 -41 35 -100 36 -134 1z"/>
<path d="M7510 4365 c-25 -26 -24 -67 2 -122 12 -24 19 -28 58 -28 37 0 46 4
57 25 7 14 13 46 13 72 0 37 -5 50 -22 62 -34 24 -81 20 -108 -9z"/>
<path d="M2623 4363 c-47 -32 -12 -138 52 -154 66 -18 105 17 108 96 2 36 -2
50 -17 61 -26 19 -115 17 -143 -3z"/>
<path d="M2868 4365 c-34 -19 -36 -50 -8 -105 38 -74 100 -82 152 -21 l32 39
18 -29 c25 -42 76 -41 112 2 31 36 33 59 7 90 -15 19 -30 23 -87 26 -38 2 -98
6 -134 8 -47 4 -73 1 -92 -10z"/>
<path d="M4375 3989 c-418 -4 -599 -10 -621 -18 -39 -15 -56 -47 -52 -97 l3
-39 55 -3 c65 -4 76 -12 60 -43 -11 -19 -10 -28 5 -56 23 -42 80 -57 102 -27
14 19 14 73 -1 105 -6 14 5 17 81 23 120 9 1865 10 2136 1 192 -7 215 -10 197
-22 -15 -11 -20 -25 -20 -63 0 -57 18 -80 60 -80 55 0 91 99 51 139 l-21 21
69 0 c51 0 74 5 90 18 39 31 26 108 -21 133 -25 13 -1225 18 -2173 8z"/>
<path d="M4984 3721 c-81 -41 -177 -133 -206 -196 -18 -40 -22 -69 -23 -140 0
-85 2 -96 38 -167 41 -84 93 -137 167 -171 67 -32 225 -31 295 1 99 46 203
174 225 280 23 104 -31 245 -124 329 -71 64 -124 85 -226 90 -79 4 -89 3 -146
-26z m221 -150 c71 -32 125 -114 125 -188 0 -41 -30 -115 -58 -146 -9 -11 -33
-28 -54 -38 -147 -75 -307 23 -308 189 0 151 154 247 295 183z"/>
<path d="M4339 3561 c-35 -35 -39 -44 -39 -90 0 -66 35 -110 95 -117 49 -6 82
10 112 55 43 64 23 140 -47 176 -48 25 -79 19 -121 -24z"/>
<path d="M5759 3561 c-33 -33 -39 -45 -39 -81 0 -113 128 -182 199 -106 59 63
40 181 -34 212 -56 23 -83 18 -126 -25z"/>
</g>
</svg>
